<?xml version="1.0" encoding="utf-8"?>
<!-- Generator: Adobe Illustrator 21.1.0, SVG Export Plug-In . SVG Version: 6.00 Build 0)  -->
<svg version="1.1" id="Layer_1" xmlns="http://www.w3.org/2000/svg" xmlns:xlink="http://www.w3.org/1999/xlink" x="0px" y="0px"
	 viewBox="0 0 20.9 30" style="enable-background:new 0 0 20.9 30;" xml:space="preserve">
<style type="text/css">
	.st0{fill:#3399FF;}
</style>
<g>
	<g>
		<path class="st0" d="M10.3,30c-0.2,0-0.5,0-0.7,0c-0.4,0-0.8-0.4-0.7-0.8c0-0.4,0.4-0.8,0.8-0.7c0.3,0,0.6,0,1,0
			c0.4,0,0.8,0.3,0.8,0.8c0,0.4-0.3,0.8-0.8,0.8C10.6,30,10.4,30,10.3,30z M13.8,29.3c-0.3,0-0.6-0.2-0.7-0.5c-0.2-0.4,0-0.9,0.4-1
			c0.3-0.1,0.6-0.3,0.9-0.4c0.2-0.1,0.4-0.1,0.5-0.1c0-0.2,0.2-0.3,0.3-0.4c0.3-0.2,0.5-0.4,0.8-0.6c0.3-0.3,0.8-0.2,1.1,0.1
			c0.3,0.3,0.2,0.8-0.1,1.1c-0.3,0.2-0.6,0.5-0.9,0.7c-0.2,0.1-0.4,0.2-0.6,0.1c-0.1,0.2-0.2,0.4-0.4,0.5c-0.3,0.2-0.7,0.3-1,0.5
			C14,29.3,13.9,29.3,13.8,29.3z M6.6,29.2c-0.1,0-0.2,0-0.3-0.1c-0.3-0.2-0.7-0.3-1-0.5c-0.4-0.2-0.5-0.7-0.3-1.1
			c0.2-0.4,0.7-0.5,1.1-0.3c0.3,0.2,0.6,0.3,0.9,0.5c0.4,0.2,0.6,0.7,0.4,1.1C7.2,29,6.9,29.2,6.6,29.2z M3.2,26.7
			c-0.2,0-0.4-0.1-0.6-0.3c-0.3-0.3-0.5-0.6-0.7-0.9c-0.3-0.4-0.2-0.9,0.2-1.1c0.4-0.3,0.9-0.2,1.1,0.2c0.2,0.3,0.4,0.5,0.6,0.8
			c0.3,0.3,0.3,0.8-0.1,1.1C3.6,26.6,3.4,26.7,3.2,26.7z M18.5,25.2c-0.1,0-0.3,0-0.4-0.1c-0.4-0.2-0.5-0.7-0.3-1.1
			c0.2-0.3,0.3-0.6,0.4-0.9c0.2-0.4,0.6-0.6,1-0.4c0.4,0.2,0.6,0.6,0.4,1c-0.2,0.4-0.3,0.7-0.5,1C19.1,25.1,18.8,25.2,18.5,25.2z
			 M1.2,23c-0.3,0-0.7-0.2-0.8-0.6c-0.1-0.4-0.2-0.7-0.3-1.1c-0.1-0.4,0.2-0.8,0.6-0.9c0.4-0.1,0.8,0.2,0.9,0.6
			c0.1,0.3,0.1,0.6,0.2,1c0.1,0.4-0.1,0.9-0.5,1C1.3,23,1.2,23,1.2,23z M19.8,21.2C19.8,21.2,19.7,21.2,19.8,21.2
			c-0.5-0.1-0.8-0.4-0.8-0.9l0-0.3c0-0.2,0-0.5,0-0.7c0-0.4,0.4-0.8,0.8-0.8c0.4,0,0.8,0.4,0.8,0.8c0,0.3,0,0.5,0,0.8l0,0.3
			C20.5,20.9,20.2,21.2,19.8,21.2z M0.8,18.9C0.8,18.9,0.8,18.9,0.8,18.9C0.3,18.8,0,18.4,0,18c0-0.4,0.1-0.7,0.1-1.1
			c0.1-0.4,0.5-0.7,0.9-0.7c0.4,0.1,0.7,0.5,0.7,0.9c-0.1,0.3-0.1,0.7-0.1,1C1.5,18.5,1.2,18.9,0.8,18.9z M19.6,17
			c-0.4,0-0.7-0.3-0.8-0.6c-0.1-0.3-0.1-0.7-0.2-1c-0.1-0.4,0.1-0.9,0.6-1c0.4-0.1,0.9,0.1,1,0.6c0.1,0.4,0.2,0.7,0.3,1.1
			c0.1,0.4-0.2,0.8-0.6,0.9C19.7,17,19.6,17,19.6,17z M1.7,14.7c-0.1,0-0.2,0-0.3,0c-0.4-0.1-0.6-0.6-0.5-1c0.1-0.3,0.2-0.7,0.4-1
			c0.2-0.4,0.6-0.6,1-0.5c0.4,0.2,0.6,0.6,0.5,1c-0.1,0.3-0.2,0.6-0.4,1C2.3,14.5,2,14.7,1.7,14.7z M18.3,13c-0.3,0-0.6-0.2-0.7-0.5
			c-0.1-0.3-0.3-0.6-0.4-0.9c-0.2-0.4,0-0.9,0.4-1c0.4-0.2,0.9,0,1,0.4c0.1,0.3,0.3,0.7,0.4,1c0.2,0.4,0,0.9-0.4,1
			C18.5,13,18.4,13,18.3,13z M3.3,10.9c-0.1,0-0.2,0-0.4-0.1c-0.4-0.2-0.5-0.7-0.3-1.1c0.2-0.3,0.3-0.6,0.5-1
			c0.2-0.4,0.7-0.5,1.1-0.3c0.4,0.2,0.5,0.7,0.3,1.1c-0.2,0.3-0.3,0.6-0.5,0.9C3.9,10.7,3.6,10.9,3.3,10.9z M16.4,9.2
			c-0.3,0-0.5-0.1-0.7-0.4c-0.2-0.3-0.4-0.6-0.5-0.9c-0.2-0.4-0.1-0.9,0.2-1.1c0.4-0.2,0.9-0.1,1.1,0.2c0.2,0.3,0.4,0.6,0.6,0.9
			c0.2,0.4,0.1,0.9-0.3,1.1C16.7,9.2,16.5,9.2,16.4,9.2z M5.5,7.2c-0.2,0-0.3,0-0.4-0.1C4.7,6.8,4.6,6.3,4.8,6
			C5,5.7,5.2,5.4,5.5,5.1c0.3-0.4,0.7-0.4,1.1-0.2C6.9,5.2,7,5.7,6.7,6C6.5,6.3,6.4,6.6,6.2,6.9C6,7.1,5.8,7.2,5.5,7.2z M14.1,5.7
			c-0.2,0-0.5-0.1-0.6-0.3c-0.2-0.3-0.4-0.6-0.6-0.8c-0.3-0.3-0.2-0.8,0.1-1.1c0.3-0.3,0.8-0.2,1.1,0.1c0.2,0.3,0.4,0.6,0.7,0.9
			c0.3,0.3,0.2,0.8-0.2,1.1C14.4,5.7,14.2,5.7,14.1,5.7z M8,3.8c-0.2,0-0.4-0.1-0.5-0.2C7.2,3.4,7.1,2.9,7.4,2.5l0.1-0.2
			c0.2-0.2,0.4-0.4,0.6-0.7c0.3-0.3,0.8-0.4,1.1-0.1c0.3,0.3,0.4,0.8,0.1,1.1C9.1,2.9,8.9,3.2,8.8,3.4L8.6,3.5
			C8.5,3.7,8.3,3.8,8,3.8z M11.4,2.4c-0.2,0-0.5-0.1-0.6-0.3l-0.7-0.8C9.9,1,9.9,0.5,10.3,0.2c0.3-0.3,0.8-0.2,1.1,0.1L12,1.1
			c0.3,0.3,0.2,0.8-0.1,1.1C11.8,2.3,11.6,2.4,11.4,2.4z"/>
	</g>
	<g>
		<path class="st0" d="M10.2,26.6C10.2,26.6,10.2,26.6,10.2,26.6c-0.4,0-0.8-0.1-1.2-0.2c-0.4-0.1-0.7-0.5-0.6-0.9
			c0.1-0.4,0.5-0.7,0.9-0.6C9.6,25,10,25,10.3,25c0.4,0,0.8,0.4,0.7,0.8C11,26.3,10.6,26.6,10.2,26.6z M6.4,25.1
			c-0.2,0-0.4-0.1-0.5-0.2C5.6,24.6,5.3,24.3,5,24c-0.3-0.3-0.2-0.8,0.1-1.1c0.3-0.3,0.8-0.2,1.1,0.1c0.2,0.2,0.4,0.5,0.7,0.7
			C7.2,24,7.3,24.5,7,24.8C6.8,25,6.6,25.1,6.4,25.1z M4.2,21.5c-0.4,0-0.7-0.2-0.8-0.6c-0.1-0.4-0.1-0.8-0.2-1.2
			c0-0.4,0.3-0.8,0.7-0.8c0.4,0,0.8,0.3,0.8,0.7c0,0.3,0.1,0.6,0.1,0.9c0.1,0.4-0.2,0.9-0.6,0.9C4.3,21.5,4.3,21.5,4.2,21.5z"/>
	</g>
</g>
</svg>
