<svg id="Layer_1" data-name="Layer 1" xmlns="http://www.w3.org/2000/svg" width="19.2444mm" height="18.7029mm" viewBox="0 0 54.551 53.0162"><title>CommunityIcon-story-S&amp;amp;A</title><path d="M27.2848,36.4574H23.1891v13.058H10.9113V28.2292h-.5758c-1.95,0-3.9007.0093-5.851-.0186A3.5019,3.5019,0,0,1,3.5,27.9227v-.4644c.1579-.1857.3158-.3715.4829-.5387q10.95-11.3258,21.9088-22.6522a2.0046,2.0046,0,0,1,1.3838-.7523,2.0046,2.0046,0,0,1,1.3838.7523L41.9216,17.976q4.5693,4.7365,9.1294,9.4823v.4644a3.5019,3.5019,0,0,1-.9845.2879c-1.95.0279-3.9007.0186-5.851.0186h-.548V49.5157H31.3526V36.4574Z" transform="translate(0 0.0005)" fill="none" stroke="#e27149" stroke-miterlimit="10" stroke-width="7"/><path d="M51.06,27.4583v.4644a3.5019,3.5019,0,0,1-.9845.2879c-1.95.0279-3.9007.0186-5.851.0186h-.548V49.5157H31.3526V36.4574H27.2848V3.5157a2.0046,2.0046,0,0,1,1.3838.7523L41.9309,17.976Q46.5,22.7125,51.06,27.4583Z" transform="translate(0 0.0005)" fill="#009ad3"/><path d="M27.2848,3.5157V36.4574H23.1891v13.058H10.9113V28.2292h-.5758c-1.95,0-3.9007.0093-5.851-.0186A3.5019,3.5019,0,0,1,3.5,27.9227v-.4644c.1579-.1857.3158-.3715.4829-.5387q10.95-11.3258,21.9088-22.6522A2.04,2.04,0,0,1,27.2848,3.5157Z" transform="translate(0 0.0005)" fill="#ffda05"/><path d="M27.2937,36.8869H23.1984v13.058H10.9206V28.6584h-.5758c-1.95,0-3.9007.0093-5.851-.0186a3.5019,3.5019,0,0,1-.9845-.2879v-.4645c.1579-.1857.3158-.3715.4829-.5387Q14.942,16.023,25.901,4.6974a2.0046,2.0046,0,0,1,1.3838-.7523,2.0046,2.0046,0,0,1,1.3838.7523L41.9309,18.4052Q46.5,23.1417,51.06,27.8875v.4644a3.5019,3.5019,0,0,1-.9845.2879c-1.95.0279-3.9007.0186-5.851.0186h-.548V49.9449H31.3619V36.8869Z" transform="translate(0 0.0005)" fill="none" stroke="#1d1d1b" stroke-miterlimit="10" stroke-width="2"/><rect x="14.6104" y="6.2238" width="4.2793" height="15.8333" fill="none" stroke="#fff" stroke-miterlimit="10" stroke-width="2.6"/><rect x="8.8334" y="12.0009" width="15.8333" height="4.2793" fill="none" stroke="#fff" stroke-miterlimit="10" stroke-width="2.6"/><rect x="14.6104" y="6.2238" width="4.2793" height="15.8333" fill="#7a7a7a" stroke="#7a7a7a" stroke-miterlimit="10" stroke-width="0.75"/><rect x="8.8334" y="12.0009" width="15.8333" height="4.2793" fill="#7a7a7a" stroke="#7a7a7a" stroke-miterlimit="10" stroke-width="0.75"/></svg>