<?xml version="1.0" encoding="utf-8"?>
<!-- Generator: Adobe Illustrator 21.1.0, SVG Export Plug-In . SVG Version: 6.00 Build 0)  -->
<svg version="1.1" id="Layer_1" xmlns="http://www.w3.org/2000/svg" xmlns:xlink="http://www.w3.org/1999/xlink" x="0px" y="0px"
	 viewBox="0 0 26.6 26.6" style="enable-background:new 0 0 26.6 26.6;" xml:space="preserve">
<style type="text/css">
	.st0{fill:#FFFFFF;}
	.st1{fill:#009BD4;}
	.st2{fill:none;}
</style>
<title>Wate-dot</title>
<circle class="st0" cx="13.3" cy="13.3" r="13.3"/>
<g id="_Group__1_">
	<path class="st1" d="M64.6-14.1H41.9c0-6.3,5.1-11.3,11.3-11.3C59.5-25.4,64.6-20.3,64.6-14.1z"/>
	<path class="st1" d="M41.9-14.1h22.7c0,6.3-5.1,11.3-11.3,11.3C47-2.7,41.9-7.8,41.9-14.1z"/>
</g>
<path class="st2" d="M24.6,11.8L11.9,24.5c0.5,0.1,1,0.1,1.5,0.1l11.3-11.3C24.7,12.8,24.7,12.3,24.6,11.8z"/>
<path class="st2" d="M19.7,22.7c1.2-0.8,2.2-1.8,3-3L19.7,22.7z"/>
<path class="st2" d="M21.7,5.7l-16,16c0.3,0.3,0.6,0.5,0.9,0.7L22.4,6.6C22.2,6.3,22,6,21.7,5.7z"/>
<path class="st2" d="M20.1,4.3L4.3,20.1C4.5,20.4,4.7,20.7,5,21L21,5C20.7,4.7,20.4,4.5,20.1,4.3z"/>
<path class="st2" d="M18.3,3.1L3.1,18.3c0.2,0.4,0.4,0.7,0.6,1L19.3,3.7C18.9,3.5,18.6,3.3,18.3,3.1z"/>
<path class="st2" d="M16,2.3L2.3,16c0.1,0.4,0.2,0.8,0.4,1.2L17.3,2.7C16.9,2.6,16.5,2.4,16,2.3z"/>
<path class="st2" d="M13.4,2L2,13.4c0,0.5,0,1,0.1,1.5L14.9,2.1C14.4,2.1,13.9,2,13.4,2z"/>
<path class="st2" d="M3.9,7.1l3.2-3.2C5.8,4.7,4.7,5.8,3.9,7.1z"/>
<path class="st2" d="M24.6,14.8l-9.7,9.7c0.7-0.1,1.4-0.3,2.1-0.5l7.2-7.2C24.3,16.2,24.5,15.5,24.6,14.8z"/>
<path class="st2" d="M24,9.4L9.5,23.9c0.4,0.1,0.8,0.3,1.2,0.4l13.7-13.7C24.3,10.2,24.1,9.8,24,9.4z"/>
<path class="st2" d="M23,7.4L7.4,23c0.3,0.2,0.7,0.4,1,0.6L23.6,8.4C23.4,8.1,23.2,7.7,23,7.4z"/>
<path class="st2" d="M9.8,2.6L2.6,9.8c-0.2,0.7-0.4,1.3-0.5,2l9.8-9.8C11.2,2.2,10.5,2.3,9.8,2.6z"/>
<path class="st1" d="M24.1,16.9L17,24c1-0.3,1.9-0.8,2.8-1.4l3-3C23.3,18.8,23.8,17.8,24.1,16.9z"/>
<path class="st1" d="M24.7,13.3C24.7,13.3,24.7,13.3,24.7,13.3L13.4,24.6c0,0,0,0,0,0c0.5,0,1,0,1.5-0.1l9.7-9.7
	C24.7,14.3,24.7,13.8,24.7,13.3z"/>
<path class="st1" d="M24.4,10.6L10.7,24.3c0.4,0.1,0.8,0.2,1.2,0.2l12.7-12.7C24.5,11.4,24.5,11,24.4,10.6z"/>
<path class="st1" d="M23.6,8.4L8.5,23.5c0.3,0.2,0.7,0.3,1,0.4L24,9.4C23.9,9.1,23.7,8.7,23.6,8.4z"/>
<path class="st1" d="M22.4,6.6L6.6,22.4c0.3,0.2,0.6,0.4,0.8,0.6L23,7.4C22.8,7.1,22.6,6.8,22.4,6.6z"/>
<path class="st1" d="M21,5L5,21c0.2,0.2,0.5,0.5,0.7,0.7l16-16C21.5,5.4,21.2,5.2,21,5z"/>
<path class="st1" d="M19.3,3.7L3.7,19.3c0.2,0.3,0.4,0.6,0.6,0.8L20.1,4.3C19.9,4.1,19.6,3.9,19.3,3.7z"/>
<path class="st1" d="M17.3,2.7L2.7,17.3c0.1,0.3,0.3,0.7,0.4,1L18.3,3.1C17.9,3,17.6,2.8,17.3,2.7z"/>
<path class="st1" d="M14.9,2.1L2.1,14.9c0.1,0.4,0.1,0.8,0.2,1.2L16,2.3C15.7,2.3,15.3,2.2,14.9,2.1z"/>
<path class="st1" d="M13.3,2c-0.5,0-1,0-1.4,0.1l-9.8,9.8C2,12.3,2,12.8,2,13.3c0,0,0,0.1,0,0.1L13.3,2C13.4,2,13.3,2,13.3,2z"/>
<path class="st1" d="M7.1,3.9L3.9,7.1c-0.6,0.8-1,1.8-1.3,2.7l7.3-7.3C8.9,2.9,7.9,3.3,7.1,3.9z"/>
</svg>
