<svg id="Layer_1" data-name="Layer 1" xmlns="http://www.w3.org/2000/svg" width="19.2445mm" height="18.7709mm" viewBox="0 0 54.5512 53.2088"><title>CommunityIcon-story-A</title><path d="M27.285,36.6512H23.1893V49.7088H10.9115V28.4227h-.5758c-1.95,0-3.9007.0093-5.851-.0186A3.5019,3.5019,0,0,1,3.5,28.1162v-.4644c.1579-.1857.3158-.3715.4829-.5387q10.95-11.3258,21.9088-22.6517a2.0046,2.0046,0,0,1,1.3838-.7526,2.0046,2.0046,0,0,1,1.3838.7523L41.9218,18.1695q4.5693,4.7365,9.1294,9.4823v.4644a3.5019,3.5019,0,0,1-.9845.2879c-1.95.0279-3.9007.0186-5.851.0186h-.548V49.7088H31.3528V36.6512Z" transform="translate(0 0)" fill="none" stroke="#e84e0f" stroke-miterlimit="10" stroke-width="7"/><path d="M27.2848,36.4575H23.1891v13.058H10.9113V28.2288h-.5758c-1.95,0-3.9007.0093-5.851-.0186A3.5019,3.5019,0,0,1,3.5,27.9223v-.4635c.1579-.1857.3158-.3715.4829-.5387q10.95-11.3258,21.9088-22.6522a2.0046,2.0046,0,0,1,1.3838-.7523,2.0046,2.0046,0,0,1,1.3838.7523L41.9216,17.9761q4.5693,4.7365,9.1294,9.4827v.4644a3.5019,3.5019,0,0,1-.9845.2879c-1.95.0279-3.9007.0186-5.851.0186h-.548V49.5158H31.3526V36.4575Z" transform="translate(0 0)" fill="none" stroke="#e27149" stroke-miterlimit="10" stroke-width="7"/><path d="M25.874,4.1616a1.6693,1.6693,0,0,1,2.8029.0019q6.72,6.946,13.4374,13.8948Q46.7478,22.857,51.37,27.665v.4706a3.8313,3.8313,0,0,1-.9977.2927c-1.9756.0282-3.9521.0141-5.9286.0141H43.89V50.0108H31.3961V36.7823H23.12V50.0188H10.6862V28.4424h-.5788c-1.9765,0-3.953.0141-5.9286-.0141a3.8313,3.8313,0,0,1-.9977-.2927V27.665c.1638-.1835.3219-.3718.4932-.5487Q14.7724,15.637,25.874,4.1616Z" transform="translate(0 0)" fill="#009ad3"/><path d="M3.1811,28.1356V27.665c.1638-.1835.3219-.3718.4932-.5487q11.0981-11.4792,22.2-22.9547a1.6693,1.6693,0,0,1,2.8029.0019q6.72,6.946,13.4374,13.8948Q46.7478,22.857,51.37,27.665v.4706a3.8313,3.8313,0,0,1-.9977.2927c-1.9756.0282-3.9521.0141-5.9286.0141H43.89V50.0108H31.3962V36.7823H23.12V50.0188H10.6862V28.4424h-.5788c-1.9765,0-3.953.0141-5.9286-.0141A3.8314,3.8314,0,0,1,3.1811,28.1356Z" transform="translate(0 0)" fill="none" stroke="#1d1d1b" stroke-miterlimit="10" stroke-width="2"/><rect x="14.6104" y="6.2233" width="4.2793" height="15.8333" fill="none" stroke="#fff" stroke-miterlimit="10" stroke-width="2.6"/><rect x="8.8334" y="12.0004" width="15.8333" height="4.2793" fill="none" stroke="#fff" stroke-miterlimit="10" stroke-width="2.6"/><rect x="14.6104" y="6.2233" width="4.2793" height="15.8333" fill="#7a7a7a" stroke="#7a7a7a" stroke-miterlimit="10" stroke-width="0.75"/><rect x="8.8334" y="12.0004" width="15.8333" height="4.2793" fill="#7a7a7a" stroke="#7a7a7a" stroke-miterlimit="10" stroke-width="0.75"/></svg>