<svg id="Layer_1" data-name="Layer 1" xmlns="http://www.w3.org/2000/svg" width="19.2969mm" height="18.8235mm" viewBox="0 0 54.7 53.3578"><title>CommunityIcon-story-S</title><path d="M27.3,36.5H23.2V49.6H10.9V28.2H4.4a1.93,1.93,0,0,1-1-.3v-.5c.2-.2.3-.4.5-.5,7.3-7.6,14.6-15.1,21.9-22.7a2.1888,2.1888,0,0,1,1.4-.8,2.2524,2.2524,0,0,1,1.4.8L41.9,18c3,3.2,6.1,6.3,9.1,9.5V28c-.3.1-.6.2-1,.3H43.6V49.6H31.4V36.5Z" transform="translate(0.1 0.1579)" fill="none" stroke="#e84e0f" stroke-miterlimit="10" stroke-width="7"/><path d="M27.3,36.6H23.2V49.7H10.9V28.4H4.4a1.93,1.93,0,0,1-1-.3v-.5c.2-.2.3-.4.5-.5,7.4-7.6,14.7-15.1,22-22.7a2.1888,2.1888,0,0,1,1.4-.8,2.2524,2.2524,0,0,1,1.4.8L42,18.1c3,3.2,6.1,6.3,9.1,9.5v.5c-.3.1-.6.2-1,.3H43.7V49.7H31.4V36.6Z" transform="translate(0.1 0.1579)" fill="none" stroke="#e27149" stroke-miterlimit="10" stroke-width="7"/><g id="_Group_2" data-name=" Group 2"><path d="M51.4,27.8v.5c-.3.1-.7.2-1,.3H43.9V50.2H31.4V36.9H27.3V3.5a1.8385,1.8385,0,0,1,1.4.8L42.1,18.2Z" transform="translate(0.1 0.1579)" fill="#ffda05"/><path d="M27.3,3.5V36.9H23.2V50.1H10.7V28.6H4.2a1.93,1.93,0,0,1-1-.3v-.5c.2-.2.3-.4.5-.5,7.4-7.7,14.8-15.3,22.2-23A2.1888,2.1888,0,0,1,27.3,3.5Z" transform="translate(0.1 0.1579)" fill="#ffda05"/><path d="M27.3,36.9H23.2V50.1H10.7V28.6H4.2a1.93,1.93,0,0,1-1-.3v-.5c.2-.2.3-.4.5-.5,7.4-7.7,14.8-15.3,22.2-23a2.4765,2.4765,0,0,1,1.4-.8,1.8385,1.8385,0,0,1,1.4.8L42.1,18.2c3.1,3.2,6.2,6.4,9.2,9.6v.5c-.3.1-.7.2-1,.3H43.8V50.2H31.4V36.9Z" transform="translate(0.1 0.1579)" fill="none" stroke="#000" stroke-miterlimit="10" stroke-width="2"/></g><rect x="14.7" y="6.3578" width="4.3" height="15.8" fill="none" stroke="#fff" stroke-miterlimit="10" stroke-width="2.6"/><rect x="8.9" y="12.1578" width="15.8" height="4.3" fill="none" stroke="#fff" stroke-miterlimit="10" stroke-width="2.6"/><rect x="14.7" y="6.3578" width="4.3" height="15.8" fill="#7a7a7a" stroke="#7a7a7a" stroke-miterlimit="10" stroke-width="0.75"/><rect x="8.9" y="12.1578" width="15.8" height="4.3" fill="#7a7a7a" stroke="#7a7a7a" stroke-miterlimit="10" stroke-width="0.75"/></svg>