<?xml version="1.0" encoding="UTF-8" standalone="no"?>
<!-- Generator: Adobe Illustrator 21.1.0, SVG Export Plug-In . SVG Version: 6.00 Build 0)  -->

<svg
   xmlns:dc="http://purl.org/dc/elements/1.1/"
   xmlns:cc="http://creativecommons.org/ns#"
   xmlns:rdf="http://www.w3.org/1999/02/22-rdf-syntax-ns#"
   xmlns:svg="http://www.w3.org/2000/svg"
   xmlns="http://www.w3.org/2000/svg"
   xmlns:sodipodi="http://sodipodi.sourceforge.net/DTD/sodipodi-0.dtd"
   xmlns:inkscape="http://www.inkscape.org/namespaces/inkscape"
   version="1.1"
   id="Layer_1"
   x="0px"
   y="0px"
   viewBox="0 0 28 28"
   xml:space="preserve"
   inkscape:version="0.91 r13725"
   sodipodi:docname="comunidad-agua-requerido.svg"
   width="35"
   height="35"><defs
     id="defs62" /><sodipodi:namedview
     pagecolor="#ffffff"
     bordercolor="#666666"
     borderopacity="1"
     objecttolerance="10"
     gridtolerance="10"
     guidetolerance="10"
     inkscape:pageopacity="0"
     inkscape:pageshadow="2"
     inkscape:window-width="877"
     inkscape:window-height="671"
     id="namedview60"
     showgrid="false"
     inkscape:zoom="8.8721803"
     inkscape:cx="13.3"
     inkscape:cy="13.3"
     inkscape:window-x="37"
     inkscape:window-y="304"
     inkscape:window-maximized="0"
     inkscape:current-layer="Layer_1" /><g
     id="circle"
     transform="translate(0.9016949,1.3294915)"><path
       style="fill:none"
       inkscape:connector-curvature="0"
       id="path14"
       d="m 24.6,11.285715 -12.7,12.7 c 0.5,0.1 1,0.1 1.5,0.1 l 11.3,-11.3 c 0,-0.5 0,-1 -0.1,-1.5 z"
       class="st2" /><path
       style="fill:none"
       inkscape:connector-curvature="0"
       id="path16"
       d="m 19.7,22.185715 c 1.2,-0.8 2.2,-1.8 3,-3 l -3,3 z"
       class="st2" /><path
       style="fill:none"
       inkscape:connector-curvature="0"
       id="path18"
       d="M 21.7,5.1857148 5.7,21.185715 c 0.3,0.3 0.6,0.5 0.9,0.7 L 22.4,6.0857151 c -0.2,-0.3 -0.4,-0.6000003 -0.7,-0.9000003 z"
       class="st2" /><path
       style="fill:none"
       inkscape:connector-curvature="0"
       id="path20"
       d="M 20.1,3.7857145 4.3,19.585715 c 0.2,0.3 0.4,0.6 0.7,0.9 L 21,4.4857148 c -0.3,-0.3 -0.6,-0.5000003 -0.9,-0.7000003 z"
       class="st2" /><path
       style="fill:none"
       inkscape:connector-curvature="0"
       id="path22"
       d="M 18.3,2.5857145 3.1,17.785715 c 0.2,0.4 0.4,0.7 0.6,1 L 19.3,3.1857145 c -0.4,-0.2 -0.7,-0.4 -1,-0.6 z"
       class="st2" /><path
       style="fill:none"
       inkscape:connector-curvature="0"
       id="path24"
       d="M 16,1.7857142 2.3,15.485715 c 0.1,0.4 0.2,0.8 0.4,1.2 L 17.3,2.1857142 c -0.4,-0.1 -0.8,-0.3 -1.3,-0.4 z"
       class="st2" /><path
       style="fill:none"
       inkscape:connector-curvature="0"
       id="path26"
       d="M 13.4,1.4857142 2,12.885715 c 0,0.5 0,1 0.1,1.5 L 14.9,1.5857142 c -0.5,0 -1,-0.1 -1.5,-0.1 z"
       class="st2" /><path
       style="fill:none"
       inkscape:connector-curvature="0"
       id="path28"
       d="M 3.9,6.5857151 7.1,3.3857145 C 5.8,4.1857148 4.7,5.2857148 3.9,6.5857151 Z"
       class="st2" /><path
       style="fill:none"
       inkscape:connector-curvature="0"
       id="path30"
       d="m 24.6,14.285715 -9.7,9.7 c 0.7,-0.1 1.4,-0.3 2.1,-0.5 l 7.2,-7.2 c 0.1,-0.6 0.3,-1.3 0.4,-2 z"
       class="st2" /><path
       style="fill:none"
       inkscape:connector-curvature="0"
       id="path32"
       d="M 24,8.8857154 9.5,23.385715 c 0.4,0.1 0.8,0.3 1.2,0.4 l 13.7,-13.7 C 24.3,9.6857154 24.1,9.2857154 24,8.8857154 Z"
       class="st2" /><path
       style="fill:none"
       inkscape:connector-curvature="0"
       id="path34"
       d="M 23,6.8857151 7.4,22.485715 c 0.3,0.2 0.7,0.4 1,0.6 L 23.6,7.8857154 c -0.2,-0.3 -0.4,-0.7 -0.6,-1.0000003 z"
       class="st2" /><path
       style="fill:none"
       inkscape:connector-curvature="0"
       id="path36"
       d="M 9.8,2.0857142 2.6,9.2857154 c -0.2,0.7 -0.4,1.2999996 -0.5,1.9999996 l 9.8,-9.8000008 c -0.7,0.2 -1.4,0.3 -2.1,0.6 z"
       class="st2" /><path
       style="fill:#009bd4"
       inkscape:connector-curvature="0"
       id="path38"
       d="m 24.1,16.385715 -7.1,7.1 c 1,-0.3 1.9,-0.8 2.8,-1.4 l 3,-3 c 0.5,-0.8 1,-1.8 1.3,-2.7 z"
       class="st1" /><path
       style="fill:#009bd4"
       inkscape:connector-curvature="0"
       id="path40"
       d="m 24.7,12.785715 c 0,0 0,0 0,0 l -11.3,11.3 c 0,0 0,0 0,0 0.5,0 1,0 1.5,-0.1 l 9.7,-9.7 c 0.1,-0.5 0.1,-1 0.1,-1.5 z"
       class="st1" /><path
       style="fill:#009bd4"
       inkscape:connector-curvature="0"
       id="path42"
       d="m 24.4,10.085715 -13.7,13.7 c 0.4,0.1 0.8,0.2 1.2,0.2 l 12.7,-12.7 c -0.1,-0.4 -0.1,-0.8 -0.2,-1.2 z"
       class="st1" /><path
       style="fill:#009bd4"
       inkscape:connector-curvature="0"
       id="path44"
       d="M 23.6,7.8857154 8.5,22.985715 c 0.3,0.2 0.7,0.3 1,0.4 L 24,8.8857154 c -0.1,-0.3 -0.3,-0.7 -0.4,-1 z"
       class="st1" /><path
       style="fill:#009bd4"
       inkscape:connector-curvature="0"
       id="path46"
       d="M 22.4,6.0857151 6.6,21.885715 c 0.3,0.2 0.6,0.4 0.8,0.6 L 23,6.8857151 c -0.2,-0.3 -0.4,-0.6 -0.6,-0.8 z"
       class="st1" /><path
       style="fill:#009bd4"
       inkscape:connector-curvature="0"
       id="path48"
       d="M 21,4.4857148 5,20.485715 c 0.2,0.2 0.5,0.5 0.7,0.7 l 16,-16.0000002 c -0.2,-0.3 -0.5,-0.5 -0.7,-0.7 z"
       class="st1" /><path
       style="fill:#009bd4"
       inkscape:connector-curvature="0"
       id="path50"
       d="M 19.3,3.1857145 3.7,18.785715 c 0.2,0.3 0.4,0.6 0.6,0.8 L 20.1,3.7857145 c -0.2,-0.2 -0.5,-0.4 -0.8,-0.6 z"
       class="st1" /><path
       style="fill:#009bd4"
       inkscape:connector-curvature="0"
       id="path52"
       d="M 17.3,2.1857142 2.7,16.785715 c 0.1,0.3 0.3,0.7 0.4,1 L 18.3,2.5857145 C 17.9,2.4857142 17.6,2.2857142 17.3,2.1857142 Z"
       class="st1" /><path
       style="fill:#009bd4"
       inkscape:connector-curvature="0"
       id="path54"
       d="M 14.9,1.5857142 2.1,14.385715 c 0.1,0.4 0.1,0.8 0.2,1.2 L 16,1.7857142 c -0.3,0 -0.7,-0.1 -1.1,-0.2 z"
       class="st1" /><path
       style="fill:#009bd4"
       inkscape:connector-curvature="0"
       id="path56"
       d="m 13.3,1.4857142 c -0.5,0 -1,0 -1.4,0.1 L 2.1,11.385715 c -0.1,0.4 -0.1,0.9 -0.1,1.4 0,0 0,0.1 0,0.1 L 13.3,1.4857142 c 0.1,0 0,0 0,0 z"
       class="st1" /><path
       style="fill:#009bd4"
       inkscape:connector-curvature="0"
       id="path58"
       d="M 7.1,3.3857145 3.9,6.5857151 C 3.3,7.3857154 2.9,8.3857154 2.6,9.2857154 L 9.9,1.9857142 c -1,0.4 -2,0.8000003 -2.8,1.4000003 z"
       class="st1" /></g><metadata
     id="metadata4219"><rdf:RDF><cc:Work
         rdf:about=""><dc:title></dc:title></cc:Work></rdf:RDF></metadata></svg>