<svg id="Layer_1" data-name="Layer 1" xmlns="http://www.w3.org/2000/svg" width="56.6929" height="56.6929" viewBox="0 0 56.6929 56.6929"><title>CommunityIcon-S&amp;amp;A</title><g id="_Group_" data-name=" Group "><path d="M51.5766,30.1391v.4644a3.5019,3.5019,0,0,1-.9845.2879c-1.95.0279-3.9007.0186-5.851.0186h-.548V52.1965H31.8689V39.1385H27.8011V6.1965a2.0046,2.0046,0,0,1,1.3838.7523l13.2623,13.708Q47.0165,25.3933,51.5766,30.1391Z" fill="#009ad3" stroke="#fff" stroke-miterlimit="10" stroke-width="4"/><path d="M27.8011,6.1965v32.942H23.7054v13.058H11.4276V30.91h-.5758c-1.95,0-3.9007.0093-5.851-.0186a3.5019,3.5019,0,0,1-.9845-.2879v-.4644c.1579-.1857.3158-.3715.4829-.5387Q15.449,18.2746,26.408,6.9487A2.04,2.04,0,0,1,27.8011,6.1965Z" fill="#ffda05" stroke="#fff" stroke-miterlimit="10" stroke-width="4"/><path d="M27.8011,39.1385H23.7054v13.058H11.4276V30.91h-.5758c-1.95,0-3.9007.0093-5.851-.0186a3.5019,3.5019,0,0,1-.9845-.2879v-.4644c.1579-.1857.3158-.3715.4829-.5387Q15.449,18.2746,26.408,6.9487a2.0046,2.0046,0,0,1,1.3838-.7523,2.0046,2.0046,0,0,1,1.3838.7523L42.4379,20.6568q4.5693,4.7365,9.1294,9.4823v.4644a3.5019,3.5019,0,0,1-.9845.2879c-1.95.0279-3.9007.0186-5.851.0186h-.548V52.1965H31.8689V39.1385Z" fill="none" stroke="#fff" stroke-miterlimit="10" stroke-width="4"/><line x1="27.8011" y1="39.1385" x2="27.8011" y2="6.1965" fill="none" stroke="#fff" stroke-miterlimit="10" stroke-width="4"/></g><g id="_Group_2" data-name=" Group "><path d="M51.5766,30.1391v.4644a3.5019,3.5019,0,0,1-.9845.2879c-1.95.0279-3.9007.0186-5.851.0186h-.548V52.1965H31.8689V39.1385H27.8011V6.1965a2.0046,2.0046,0,0,1,1.3838.7523l13.2623,13.708Q47.0165,25.3933,51.5766,30.1391Z" fill="#009ad3"/><path d="M27.8011,6.1965v32.942H23.7054v13.058H11.4276V30.91h-.5758c-1.95,0-3.9007.0093-5.851-.0186a3.5019,3.5019,0,0,1-.9845-.2879v-.4644c.1579-.1857.3158-.3715.4829-.5387Q15.449,18.2746,26.408,6.9487A2.04,2.04,0,0,1,27.8011,6.1965Z" fill="#ffda05"/><path d="M27.8011,39.1385H23.7054v13.058H11.4276V30.91h-.5758c-1.95,0-3.9007.0093-5.851-.0186a3.5019,3.5019,0,0,1-.9845-.2879v-.4644c.1579-.1857.3158-.3715.4829-.5387Q15.449,18.2746,26.408,6.9487a2.0046,2.0046,0,0,1,1.3838-.7523,2.0046,2.0046,0,0,1,1.3838.7523L42.4379,20.6568q4.5693,4.7365,9.1294,9.4823v.4644a3.5019,3.5019,0,0,1-.9845.2879c-1.95.0279-3.9007.0186-5.851.0186h-.548V52.1965H31.8689V39.1385Z" fill="none" stroke="#1d1d1b" stroke-miterlimit="10" stroke-width="2"/><line x1="27.8011" y1="39.1385" x2="27.8011" y2="6.1965" fill="none" stroke="#1d1d1b" stroke-miterlimit="10" stroke-width="0.5"/></g></svg>