<svg id="Layer_1" data-name="Layer 1" xmlns="http://www.w3.org/2000/svg" width="56.6929" height="56.6929" viewBox="0 0 56.6929 56.6929"><title>CommunityIcon-S-01</title><g id="_Group_" data-name=" Group "><path d="M51.8909,29.6516v.4705a3.5481,3.5481,0,0,1-.9975.2917c-1.9761.0282-3.9522.0188-5.9283.0188H44.41V52H31.9228V38.77H27.8012V5.3924a2.0311,2.0311,0,0,1,1.4021.7622L42.6408,20.0439Q47.2706,24.843,51.8909,29.6516Z" fill="#ffda05" stroke="#fff" stroke-miterlimit="10"/><path d="M27.8012,5.3924V38.77h-4.15V52h-12.44V30.4326h-.5834c-1.9761,0-3.9522.0094-5.9283-.0188a3.5481,3.5481,0,0,1-.9975-.2917v-.47c.16-.1882.32-.3764.4893-.5458Q15.2858,17.63,26.39,6.1546A2.0665,2.0665,0,0,1,27.8012,5.3924Z" fill="#ffda05" stroke="#fff" stroke-miterlimit="10"/><path d="M27.8012,38.77h-4.15V52h-12.44V30.4326h-.5834c-1.9761,0-3.9522.0094-5.9283-.0188a3.5481,3.5481,0,0,1-.9975-.2917v-.47c.16-.1882.32-.3764.4893-.5458Q15.2858,17.63,26.39,6.1546a2.0311,2.0311,0,0,1,1.4021-.7622,2.0311,2.0311,0,0,1,1.4021.7622L42.6314,20.0439q4.63,4.7991,9.25,9.6077v.4705a3.5481,3.5481,0,0,1-.9975.2917c-1.9761.0282-3.9522.0188-5.9283.0188H44.4V52H31.9228V38.77Z" fill="none" stroke="#fff" stroke-miterlimit="10" stroke-width="4"/></g><g id="_Group_2" data-name=" Group "><path d="M51.8909,29.6516v.4705a3.5481,3.5481,0,0,1-.9975.2917c-1.9761.0282-3.9522.0188-5.9283.0188H44.41V52H31.9228V38.77H27.8012V5.3924a2.0311,2.0311,0,0,1,1.4021.7622L42.6408,20.0439Q47.2706,24.843,51.8909,29.6516Z" fill="#ffda05"/><path d="M27.8012,5.3924V38.77h-4.15V52h-12.44V30.4326h-.5834c-1.9761,0-3.9522.0094-5.9283-.0188a3.5481,3.5481,0,0,1-.9975-.2917v-.47c.16-.1882.32-.3764.4893-.5458Q15.2858,17.63,26.39,6.1546A2.0665,2.0665,0,0,1,27.8012,5.3924Z" fill="#ffda05"/><path d="M27.8012,38.77h-4.15V52h-12.44V30.4326h-.5834c-1.9761,0-3.9522.0094-5.9283-.0188a3.5481,3.5481,0,0,1-.9975-.2917v-.47c.16-.1882.32-.3764.4893-.5458Q15.2858,17.63,26.39,6.1546a2.0311,2.0311,0,0,1,1.4021-.7622,2.0311,2.0311,0,0,1,1.4021.7622L42.6314,20.0439q4.63,4.7991,9.25,9.6077v.4705a3.5481,3.5481,0,0,1-.9975.2917c-1.9761.0282-3.9522.0188-5.9283.0188H44.4V52H31.9228V38.77Z" fill="none" stroke="#000" stroke-miterlimit="10" stroke-width="2"/></g></svg>