<svg xmlns="http://www.w3.org/2000/svg" viewBox="0 0 30 30"><defs><style>.cls-1{fill:#fc3;}</style></defs><title>solar</title><g id="Layer_2" data-name="Layer 2"><g id="Side_Panel_Content" data-name="Side Panel Content"><path class="cls-1" d="M28.71,13.66a11.22,11.22,0,0,0-3.61-.75c-.5,0-.79.19-.81.57s.25.64.75.7,1.24.13,1.85.26,1.11.33,1.66.49v.13a5.45,5.45,0,0,1-.82.3q-1.35.27-2.72.48c-.47.07-.74.3-.71.7s.31.59.78.57a11.19,11.19,0,0,0,3.65-.75A2.05,2.05,0,0,0,30,15.23v-.45A2.05,2.05,0,0,0,28.71,13.66Z"/><path class="cls-1" d="M16.53,24.29c-.4,0-.64.24-.7.75s-.13,1.24-.26,1.85-.33,1.11-.49,1.66H15a5.48,5.48,0,0,1-.3-.82q-.27-1.35-.48-2.72c-.07-.47-.3-.74-.69-.71s-.59.31-.57.78a11.18,11.18,0,0,0,.75,3.65A2,2,0,0,0,14.77,30h.46a2.05,2.05,0,0,0,1.12-1.29,11.21,11.21,0,0,0,.75-3.61C17.12,24.6,16.91,24.32,16.53,24.29Z"/><path class="cls-1" d="M15,6.86A8.15,8.15,0,1,0,23.15,15,8.18,8.18,0,0,0,15,6.86Zm0,15A6.88,6.88,0,1,1,21.88,15,6.91,6.91,0,0,1,15,21.89Z"/><path class="cls-1" d="M5.72,16.52c0-.37-.22-.62-.65-.67l-.34,0a10.41,10.41,0,0,1-3.25-.78V15a5.69,5.69,0,0,1,.83-.3c.9-.18,1.81-.34,2.72-.48.46-.07.71-.3.7-.67s-.3-.61-.76-.59A9,9,0,0,0,4,13a8.54,8.54,0,0,0-3.21,1,1.13,1.13,0,0,0,0,2.12,2.15,2.15,0,0,0,.46.24,16.39,16.39,0,0,0,1.75.53,17.77,17.77,0,0,0,2,.27A.61.61,0,0,0,5.72,16.52Z"/><path class="cls-1" d="M23.59,20.62a1,1,0,0,0-.17-.15.59.59,0,0,0-.82.06.58.58,0,0,0-.06.79c.08.11.17.21.26.32a10.69,10.69,0,0,1,1.84,3,3.83,3.83,0,0,1-.59-.24c-.83-.54-1.68-1.08-2.48-1.66-.46-.34-.8-.42-1.08-.1s-.22.69.24,1.05c.72.55,1.46,1.09,2.23,1.57a3.59,3.59,0,0,0,1.82.64,1,1,0,0,0,1.1-1.08,3.35,3.35,0,0,0-.25-1.08A11,11,0,0,0,23.59,20.62Z"/><path class="cls-1" d="M8.63,22.59c-.09.07-.17.15-.25.22a10.59,10.59,0,0,1-2.91,1.8l-.07-.07a4.8,4.8,0,0,1,.32-.71c.52-.79,1.06-1.57,1.61-2.34.28-.39.32-.74,0-1s-.65-.21-1,.15a10.42,10.42,0,0,0-1.88,2.78,4.68,4.68,0,0,0-.38,1.5.91.91,0,0,0,.94,1,2.25,2.25,0,0,0,.67-.07,8.76,8.76,0,0,0,2.81-1.53,8.51,8.51,0,0,0,.91-.78.6.6,0,0,0,0-.87A.62.62,0,0,0,8.63,22.59Z"/><path class="cls-1" d="M6.43,9.4a.63.63,0,0,0,1.09-.09.69.69,0,0,0-.17-.79C7,8,6.56,7.56,6.22,7s-.57-1-.85-1.55l.09-.08a3.33,3.33,0,0,1,.4.15,12.65,12.65,0,0,1,1.21.68c.52.36,1,.76,1.52,1.15s1,.17,1.06-.34a.94.94,0,0,0-.28-.64A10.25,10.25,0,0,0,6.52,4.49a4.07,4.07,0,0,0-1.29-.36A1,1,0,0,0,4.12,5.25a3.11,3.11,0,0,0,.23,1A10.8,10.8,0,0,0,6.43,9.4Z"/><path class="cls-1" d="M21.41,7.4c.22-.18.43-.38.66-.56a9.85,9.85,0,0,1,2.57-1.47A3.68,3.68,0,0,1,24.4,6c-.54.83-1.08,1.68-1.66,2.48-.34.47-.42.8-.1,1.08s.66.21,1.06-.24a9.89,9.89,0,0,0,.64-.78,8.79,8.79,0,0,0,1.48-2.72c.34-1.22-.36-1.91-1.59-1.58l-.14,0a10.73,10.73,0,0,0-3.51,2.24.61.61,0,0,0-.06.9A.62.62,0,0,0,21.41,7.4Z"/><path class="cls-1" d="M13.49,5.72a.59.59,0,0,0,.64-.51c0-.07,0-.15,0-.22.16-.89.3-1.79.48-2.68a5.79,5.79,0,0,1,.3-.83h.11a5.94,5.94,0,0,1,.3.84c.18.89.34,1.79.48,2.68.07.48.29.75.68.73s.6-.31.58-.8a9.51,9.51,0,0,0-.09-1A8.8,8.8,0,0,0,16.1.8c-.6-1.06-1.59-1.08-2.18,0a9.37,9.37,0,0,0-1,4.33A.58.58,0,0,0,13.49,5.72Z"/></g></g></svg>