<svg xmlns="http://www.w3.org/2000/svg" viewBox="0 0 22 30"><defs><style>.cls-1{fill:#39f;}</style></defs><title>water</title><g id="Layer_2" data-name="Layer 2"><g id="Side_Panel_Content" data-name="Side Panel Content"><path class="cls-1" d="M20.32,12.27a39.1,39.1,0,0,0-8.74-12c-.41-.4-.75-.38-1.19,0A43.81,43.81,0,0,0,5.56,5.81a28.28,28.28,0,0,0-5,9.94,11.87,11.87,0,0,0-.25,5.83,10.6,10.6,0,0,0,8.15,8.1c.62.16,1.27.22,1.91.32h1.41a23.31,23.31,0,0,0,2.57-.5A10.58,10.58,0,0,0,22,19.2,17.38,17.38,0,0,0,20.32,12.27Zm-4.87,15.4a9.46,9.46,0,0,1-9.68-.45,8.8,8.8,0,0,1-4.35-7A15.13,15.13,0,0,1,3,12.68,35.46,35.46,0,0,1,8.82,3.87c.69-.79,1.42-1.55,2.23-2.44,1.31,1.52,2.6,2.95,3.8,4.44a30.33,30.33,0,0,1,4.44,7.38,14.55,14.55,0,0,1,1.31,6.95A8.87,8.87,0,0,1,15.45,27.66Z"/><path class="cls-1" d="M11.67,25.63l-.41,0a6.24,6.24,0,0,1-5.82-5.93q0-.93-.65-.91c-.44,0-.64.35-.59,1a7.43,7.43,0,0,0,5.15,6.74,12.79,12.79,0,0,0,2.28.38.59.59,0,0,0,.67-.56A.62.62,0,0,0,11.67,25.63Z"/></g></g></svg>