<svg id="Layer_1" data-name="Layer 1" xmlns="http://www.w3.org/2000/svg" width="56.6929" height="56.6929" viewBox="0 0 56.6929 56.6929"><title>CommunityIcon-A</title><path d="M3.752,29.1179v-.4706c.1638-.1835.3219-.3718.4932-.5487q11.0981-11.4792,22.2-22.9547a1.6693,1.6693,0,0,1,2.8029.0019q6.72,6.946,13.4374,13.8948,4.6335,4.7987,9.2557,9.6067v.4706a3.8313,3.8313,0,0,1-.9977.2927c-1.9756.0282-3.9521.0141-5.9286.0141h-.5534V50.9931H31.9671V37.7646H23.6912v13.236H11.2571V29.4247h-.5788c-1.9765,0-3.953.0141-5.9286-.0141A3.8314,3.8314,0,0,1,3.752,29.1179Z" fill="none" stroke="#fff" stroke-miterlimit="10" stroke-width="4"/><path d="M26.4451,5.1439a1.6693,1.6693,0,0,1,2.8029.0019q6.72,6.946,13.4374,13.8948,4.6335,4.7987,9.2557,9.6067v.4706a3.8313,3.8313,0,0,1-.9977.2927c-1.9756.0282-3.9521.0141-5.9286.0141h-.5534V50.9931H31.967V37.7646H23.6912v13.236H11.2571V29.4247h-.5788c-1.9765,0-3.953.0141-5.9286-.0141a3.8313,3.8313,0,0,1-.9977-.2927v-.4706c.1638-.1835.3219-.3718.4932-.5487Q15.3433,16.6193,26.4451,5.1439Z" fill="#009ad3"/><path d="M3.752,29.1179v-.4706c.1638-.1835.3219-.3718.4932-.5487q11.0981-11.4792,22.2-22.9547a1.6693,1.6693,0,0,1,2.8029.0019q6.72,6.946,13.4374,13.8948,4.6335,4.7987,9.2557,9.6067v.4706a3.8313,3.8313,0,0,1-.9977.2927c-1.9756.0282-3.9521.0141-5.9286.0141h-.5534V50.9931H31.9671V37.7646H23.6912v13.236H11.2571V29.4247h-.5788c-1.9765,0-3.953.0141-5.9286-.0141A3.8314,3.8314,0,0,1,3.752,29.1179Z" fill="none" stroke="#1d1d1b" stroke-miterlimit="10" stroke-width="2"/></svg>